<svg width="1440" height="1024" viewBox="0 0 1440 1024" fill="none" xmlns="http://www.w3.org/2000/svg">
<path fill-rule="evenodd" clip-rule="evenodd" d="M-305 343.25L-166.083 468.008C-27.1667 592.766 250.667 837.484 528.5 890.266C806.333 938.25 1084.17 789.5 1362 741.516C1639.83 688.734 1917.67 741.516 2195.5 813.492C2473.33 890.266 2751.17 986.234 2890.08 1039.02L3029 1087V-103H2890.08C2751.17 -103 2473.33 -103 2195.5 -103C1917.67 -103 1639.83 -103 1362 -103C1084.17 -103 806.333 -103 528.5 -103C250.667 -103 -27.1667 -103 -166.083 -103H-305V343.25Z" fill="#161722"/>
<path fill-rule="evenodd" clip-rule="evenodd" d="M3024 784.75L2885.46 700.25C2746.92 615.75 2469.83 450 2192.75 414.25C1915.67 381.75 1638.58 482.5 1361.5 515C1084.42 550.75 807.333 515 530.25 466.25C253.167 414.25 -23.9167 349.25 -162.458 313.5L-301 281V1087H-162.458C-23.9167 1087 253.167 1087 530.25 1087C807.333 1087 1084.42 1087 1361.5 1087C1638.58 1087 1915.67 1087 2192.75 1087C2469.83 1087 2746.92 1087 2885.46 1087H3024V784.75Z" fill="#15161F"/>
</svg>
